<?xml version="1.0" encoding="UTF-8" standalone="no"?>
<svg
   viewBox="0 0 640 640"
   version="1.1"
   id="svg44"
   sodipodi:docname="arrow-down-solid-full.svg"
   inkscape:version="1.2.2 (b0a8486541, 2022-12-01)"
   xmlns:inkscape="http://www.inkscape.org/namespaces/inkscape"
   xmlns:sodipodi="http://sodipodi.sourceforge.net/DTD/sodipodi-0.dtd"
   xmlns="http://www.w3.org/2000/svg"
   xmlns:svg="http://www.w3.org/2000/svg">
  <defs
     id="defs48" />
  <sodipodi:namedview
     id="namedview46"
     pagecolor="#ffffff"
     bordercolor="#000000"
     borderopacity="0.25"
     inkscape:showpageshadow="2"
     inkscape:pageopacity="0.0"
     inkscape:pagecheckerboard="0"
     inkscape:deskcolor="#d1d1d1"
     showgrid="false"
     inkscape:zoom="1.371875"
     inkscape:cx="284.64692"
     inkscape:cy="374.6697"
     inkscape:window-width="1920"
     inkscape:window-height="1048"
     inkscape:window-x="0"
     inkscape:window-y="0"
     inkscape:window-maximized="1"
     inkscape:current-layer="svg44" />
  <!--!Font Awesome Free 7.0.0 by @fontawesome - https://fontawesome.com License - https://fontawesome.com/license/free Copyright 2025 Fonticons, Inc.-->
  <path
     d="M297.4 566.6C309.9 579.1 330.2 579.1 342.7 566.6L502.7 406.6C515.2 394.1 515.2 373.8 502.7 361.3C490.2 348.8 469.9 348.8 457.4 361.3L352 466.7L352 96C352 78.3 337.7 64 320 64C302.3 64 288 78.3 288 96L288 466.7L182.6 361.3C170.1 348.8 149.8 348.8 137.3 361.3C124.8 373.8 124.8 394.1 137.3 406.6L297.3 566.6z"
     id="path42"
     style="fill:#ffffff;fill-opacity:1" />
  <path
     style="fill:#ffffff;stroke-width:10;stroke:none;stroke-opacity:1;stroke-dasharray:none;fill-opacity:1"
     d="m 314.24753,575.10675 c -1.76067,-0.3683 -5.36887,-1.67713 -8.01822,-2.90852 -4.53225,-2.10655 -9.7779,-7.20327 -88.73541,-86.21629 -91.67348,-91.7379 -86.86793,-86.47938 -88.67599,-97.03475 -3.48324,-20.33503 15.27433,-39.53449 35.38053,-36.21402 10.87521,1.796 7.27236,-1.34301 67.97655,59.22514 30.47529,30.40698 55.64823,55.28543 55.93987,55.28543 0.29163,0 0.61471,-85.36675 0.71794,-189.70388 l 0.1877,-189.703869 2.33885,-4.937643 c 4.44725,-9.388769 13.6091,-16.260577 24.15645,-18.118457 12.78988,-2.252893 27.21202,5.635655 33.12485,18.118457 l 2.33885,4.937643 0.1877,189.703869 c 0.10323,104.33713 0.42834,189.70388 0.72246,189.70388 0.29412,0 25.30305,-24.72378 55.5754,-54.94173 60.2711,-60.16279 57.61449,-57.84424 68.25677,-59.57081 12.85789,-2.086 26.46402,5.1502 32.4157,17.2398 3.03263,6.16013 4.10014,12.81377 3.04456,18.97619 -1.80487,10.53676 2.86751,5.41514 -87.58532,96.00647 -45.55225,45.62201 -84.26383,83.91233 -86.02572,85.0896 -6.69576,4.47402 -16.23804,6.54563 -23.32352,5.06349 z"
     id="path238" />
</svg>
